<?xml version="1.0" encoding="utf-8"?>
<!-- Generator: Adobe Illustrator 27.0.0, SVG Export Plug-In . SVG Version: 6.00 Build 0)  -->
<svg version="1.1" id="Layer_2_00000075881855547062686090000014688428656518094003_"
	 xmlns="http://www.w3.org/2000/svg" xmlns:xlink="http://www.w3.org/1999/xlink" x="0px" y="0px" viewBox="0 0 484.7 647.9"
	 style="enable-background:new 0 0 484.7 647.9;" xml:space="preserve">
<style type="text/css">
	.st0{fill:#FFFFFF;}
	.st1{fill-rule:evenodd;clip-rule:evenodd;fill:#FFFFFF;}
</style>
<g id="Layer_1-2">
	<path class="st0" d="M286.5,401.6c-20.3-11.7-46.3-22.7-77.9-32.8c-31.6-10.1-53.7-20-66.3-29.5c-12.6-9.5-18.8-20.2-18.8-31.9
		c0-13.4,5.7-24.4,17.1-33.1c11.4-8.7,27-13,46.7-13s34.9,5.1,46.3,15.4c11.4,10.3,17.1,24.7,17.1,43.4h109.9
		c0-27.9-7.2-52.6-21.7-74.3c-14.5-21.7-34.7-38.4-60.8-50.1c-26.1-11.7-55.6-17.6-88.4-17.6s-64.1,5.4-91.1,16.2
		C71.6,205,50.7,220,36,239.4s-22.1,41.7-22.1,67.1c0,50.9,29.6,90.9,88.9,120c18.2,9,41.7,18.3,70.3,28c28.7,9.6,48.7,19,60.1,28
		c11.4,9,17.1,21.6,17.1,37.7v0.5l101.7,46.1c5.7-14.1,8.5-29.8,8.5-47.2C360.6,469.4,335.9,430.1,286.5,401.6L286.5,401.6z
		 M191.3,565c-28.5,0-49.1-5.8-61.7-17.4c-12.7-11.6-19-29.7-19-54.2H0c0,30.2,7.6,56.8,22.8,79.9c15.2,23.1,37.8,41.4,67.8,54.7
		c30.1,13.3,63.6,20,100.7,20c52.6,0,93.9-11.4,124.1-34.2c2-1.5,4-3.1,5.9-4.7l-104.3-47.2C209.4,563.9,200.9,565,191.3,565
		L191.3,565z"/>
	<path class="st1" d="M423.5,222c3.1-0.3,5.8-2.6,6.6-5.8s-0.7-6.5-3.3-8.2l11.6-49.8l46.2-7.9L381.5,75.1L278.3,0L152.6,21.6
		L26.8,43.2l99.7,72.6l-13.9,59.6c38.3-19.4,83.3-26,128.4-15.5c45,10.5,82.5,36.4,108.2,70.7l13.9-59.5l69.9-12l-11.2,47.8
		c-3.1,0.3-5.8,2.6-6.6,5.8s0.7,6.5,3.3,8.1l-3.6,15.4l-24.4,34.3l36,8.4l-6.7-41.6L423.5,222L423.5,222z M148.4,115.9
		c75-17,137.7-1.6,197.2,46.1C281.9,120.6,216.1,105.2,148.4,115.9L148.4,115.9z"/>
</g>
</svg>
